<?xml version="1.0" encoding="UTF-8"?>
<!DOCTYPE svg PUBLIC "-//W3C//DTD SVG 1.1//EN" "http://www.w3.org/Graphics/SVG/1.1/DTD/svg11.dtd">
<svg xmlns="http://www.w3.org/2000/svg" version="1.1" width="256px" height="256px" style="shape-rendering:geometricPrecision; text-rendering:geometricPrecision; image-rendering:optimizeQuality; fill-rule:evenodd; clip-rule:evenodd" xmlns:xlink="http://www.w3.org/1999/xlink">
<g><path style="opacity:0.953" fill="#f6c100" d="M 30.5,-0.5 C 105.167,-0.5 179.833,-0.5 254.5,-0.5C 254.5,0.166667 254.833,0.5 255.5,0.5C 255.5,75.1667 255.5,149.833 255.5,224.5C 250.938,240.062 240.938,250.396 225.5,255.5C 160.167,255.5 94.8333,255.5 29.5,255.5C 14.0619,250.396 4.06186,240.062 -0.5,224.5C -0.5,159.833 -0.5,95.1667 -0.5,30.5C 4.16667,14.5 14.5,4.16667 30.5,-0.5 Z"/></g>
<g><path style="opacity:1" fill="#ffe200" d="M 33.5,7.5 C 32.8333,7.5 32.1667,7.5 31.5,7.5C 30.7611,7.63101 30.0944,7.46434 29.5,7C 30.5,6.66667 31.5,6.33333 32.5,6C 86.1667,5.33333 139.833,5.33333 193.5,6C 139.998,6.1672 86.6651,6.6672 33.5,7.5 Z"/></g>
<g><path style="opacity:1" fill="#010101" d="M 31.5,7.5 C 32.1667,7.5 32.8333,7.5 33.5,7.5C 86.8333,7.5 140.167,7.5 193.5,7.5C 193.333,21.1707 193.5,34.8374 194,48.5C 194.786,51.5827 196.619,53.7494 199.5,55C 215.497,55.4999 231.497,55.6666 247.5,55.5C 247.667,111.168 247.5,166.834 247,222.5C 244.283,235.55 236.45,243.717 223.5,247C 158.833,247.667 94.1667,247.667 29.5,247C 18.1305,242.966 10.9638,235.132 8,223.5C 7.33333,158.833 7.33333,94.1667 8,29.5C 12.2116,18.1164 20.0449,10.7831 31.5,7.5 Z"/></g>
<g><path style="opacity:1" fill="#0f0a00" d="M 229.5,12.5 C 229.5,15.1667 229.5,17.8333 229.5,20.5C 242.154,17.9889 247.321,22.9889 245,35.5C 243.457,40.2783 240.124,42.2783 235,41.5C 230.035,42.3539 227.202,40.3539 226.5,35.5C 226.5,27.8333 226.5,20.1667 226.5,12.5C 227.5,12.5 228.5,12.5 229.5,12.5 Z"/></g>
<g><path style="opacity:1" fill="#544100" d="M 229.5,12.5 C 228.5,12.5 227.5,12.5 226.5,12.5C 226.5,20.1667 226.5,27.8333 226.5,35.5C 225.508,27.6841 225.174,19.6841 225.5,11.5C 227.099,11.2322 228.432,11.5655 229.5,12.5 Z"/></g>
<g><path style="opacity:1" fill="#010100" d="M 208.5,34.5 C 208.973,35.9063 209.973,36.573 211.5,36.5C 214.625,37.4794 217.958,37.8128 221.5,37.5C 221.5,38.5 221.5,39.5 221.5,40.5C 217.167,40.5 212.833,40.5 208.5,40.5C 206.413,39.4154 205.08,37.7488 204.5,35.5C 204.5,28.8333 204.5,22.1667 204.5,15.5C 205.5,15.5 206.5,15.5 207.5,15.5C 207.177,22.0221 207.51,28.3554 208.5,34.5 Z"/></g>
<g><path style="opacity:1" fill="#715700" d="M 208.5,34.5 C 207.51,28.3554 207.177,22.0221 207.5,15.5C 206.5,15.5 205.5,15.5 204.5,15.5C 204.5,22.1667 204.5,28.8333 204.5,35.5C 203.509,28.6866 203.175,21.6866 203.5,14.5C 205.167,14.5 206.833,14.5 208.5,14.5C 208.5,21.1667 208.5,27.8333 208.5,34.5 Z"/></g>
<g><path style="opacity:1" fill="#f2c000" d="M 229.5,24.5 C 238.804,21.9954 242.971,25.3287 242,34.5C 238.269,38.0498 234.269,38.3831 230,35.5C 229.501,31.8484 229.335,28.1817 229.5,24.5 Z"/></g>
<g><path style="opacity:1" fill="#f3f3f3" d="M 57.5,37.5 C 72.0204,37.1853 78.1871,44.1853 76,58.5C 70.5317,67.7002 63.0317,69.8668 53.5,65C 46.9893,58.7488 45.8227,51.5821 50,43.5C 52.4784,41.3606 54.9784,39.3606 57.5,37.5 Z"/></g>
<g><path style="opacity:1" fill="#453502" d="M 211.5,36.5 C 215.167,36.5 218.833,36.5 222.5,36.5C 222.5,38.1667 222.5,39.8333 222.5,41.5C 217.637,41.8195 212.97,41.4861 208.5,40.5C 212.833,40.5 217.167,40.5 221.5,40.5C 221.5,39.5 221.5,38.5 221.5,37.5C 217.958,37.8128 214.625,37.4794 211.5,36.5 Z"/></g>
<g><path style="opacity:1" fill="#181818" d="M 56.5,48.5 C 58.0481,48.8212 58.7148,49.8212 58.5,51.5C 55.7524,51.5983 55.0857,50.5983 56.5,48.5 Z"/></g>
<g><path style="opacity:1" fill="#282828" d="M 65.5,48.5 C 66.9953,48.4148 67.9953,49.0815 68.5,50.5C 67.1667,51.8333 65.8333,51.8333 64.5,50.5C 64.8627,49.8165 65.1961,49.1499 65.5,48.5 Z"/></g>
<g><path style="opacity:1" fill="#0f0f0f" d="M 54.5,55.5 C 54.56,54.9569 54.8933,54.6236 55.5,54.5C 57.6201,55.8909 59.9534,56.5576 62.5,56.5C 65.6054,56.0606 68.6054,55.5606 71.5,55C 65.9661,59.4849 60.2994,59.6516 54.5,55.5 Z"/></g>
<g><path style="opacity:1" fill="#f9f9f9" d="M 41.5,70.5 C 54.8375,70.3334 68.1708,70.5001 81.5,71C 90.4641,72.9633 95.6307,78.4633 97,87.5C 97.6667,104.167 97.6667,120.833 97,137.5C 94.5327,141.559 91.0327,142.559 86.5,140.5C 85.8076,139.975 85.3076,139.308 85,138.5C 84.5001,123.837 84.3334,109.17 84.5,94.5C 83.5,94.5 82.5,94.5 81.5,94.5C 81.9824,134.228 81.4824,173.894 80,213.5C 73.8633,219.255 68.53,218.588 64,211.5C 63.5,188.502 63.3334,165.502 63.5,142.5C 62.5,142.5 61.5,142.5 60.5,142.5C 60.6666,165.502 60.5,188.502 60,211.5C 53.763,219.821 48.0964,219.488 43,210.5C 42.5,171.835 42.3333,133.168 42.5,94.5C 41.5,94.5 40.5,94.5 39.5,94.5C 39.6666,109.17 39.4999,123.837 39,138.5C 38.5,139.667 37.6667,140.5 36.5,141C 32.2194,142.458 29.0527,141.292 27,137.5C 26.3333,120.167 26.3333,102.833 27,85.5C 29.3509,77.9841 34.1842,72.9841 41.5,70.5 Z"/></g>
<g><path style="opacity:1" fill="#f2f2f2" d="M 134.5,91.5 C 144.317,91.1488 148.817,95.8155 148,105.5C 145.24,111.297 140.74,113.463 134.5,112C 125.214,105.169 125.214,98.3355 134.5,91.5 Z"/></g>
<g><path style="opacity:1" fill="#f2f2f2" d="M 200.5,91.5 C 210.78,91.3905 214.947,96.3905 213,106.5C 209.945,111.635 205.445,113.468 199.5,112C 193.891,108.723 192.058,103.89 194,97.5C 195.494,94.6865 197.66,92.6865 200.5,91.5 Z"/></g>
<g><path style="opacity:1" fill="#595959" d="M 133.5,100.5 C 135.337,100.639 135.67,101.306 134.5,102.5C 133.702,102.043 133.369,101.376 133.5,100.5 Z"/></g>
<g><path style="opacity:1" fill="#555555" d="M 139.5,100.5 C 141.337,100.639 141.67,101.306 140.5,102.5C 139.702,102.043 139.369,101.376 139.5,100.5 Z"/></g>
<g><path style="opacity:1" fill="#5d5d5d" d="M 204.5,100.5 C 206.337,100.639 206.67,101.306 205.5,102.5C 204.702,102.043 204.369,101.376 204.5,100.5 Z"/></g>
<g><path style="opacity:1" fill="#191919" d="M 132.5,104.5 C 136.099,104.481 139.766,104.481 143.5,104.5C 139.812,107.159 136.145,107.159 132.5,104.5 Z"/></g>
<g><path style="opacity:1" fill="#1e1e1e" d="M 198.5,104.5 C 202.008,104.612 205.674,104.445 209.5,104C 205.896,107.052 202.229,107.218 198.5,104.5 Z"/></g>
<g><path style="opacity:1" fill="#fbfbfb" d="M 139.5,165.5 C 138.791,164.596 137.791,164.263 136.5,164.5C 136.5,180.833 136.5,197.167 136.5,213.5C 132.798,218.807 128.964,218.807 125,213.5C 124.833,186.161 124.333,158.827 123.5,131.5C 122.668,141.817 122.168,152.151 122,162.5C 119.333,165.167 116.667,165.167 114,162.5C 113.333,149.5 113.333,136.5 114,123.5C 116.007,119.407 119.173,116.573 123.5,115C 132.833,114.333 142.167,114.333 151.5,115C 156.681,115.831 160.181,118.664 162,123.5C 162.667,136.5 162.667,149.5 162,162.5C 159.333,165.167 156.667,165.167 154,162.5C 153.832,152.151 153.332,141.817 152.5,131.5C 151.667,158.827 151.167,186.161 151,213.5C 147.74,218.285 144.073,218.619 140,214.5C 139.5,198.17 139.333,181.837 139.5,165.5 Z"/></g>
<g><path style="opacity:1" fill="#f5f5f5" d="M 188.5,114.5 C 198.172,114.334 207.839,114.5 217.5,115C 222.573,116.406 226.073,119.572 228,124.5C 228.667,136.833 228.667,149.167 228,161.5C 226.695,164.306 224.528,165.14 221.5,164C 220.333,163.5 219.5,162.667 219,161.5C 218.832,151.483 218.332,141.483 217.5,131.5C 216.667,159.161 216.167,186.827 216,214.5C 211.927,218.619 208.26,218.285 205,213.5C 204,148.167 203,148.167 202,213.5C 197.579,219.086 193.579,218.753 190,212.5C 189.833,185.494 189.333,158.494 188.5,131.5C 187.668,141.817 187.168,152.151 187,162.5C 183.844,165.399 181.178,165.065 179,161.5C 178.333,149.167 178.333,136.833 179,124.5C 181.022,119.98 184.189,116.647 188.5,114.5 Z"/></g>
<g><path style="opacity:1" fill="#6a6a6a" d="M 139.5,165.5 C 137.838,181.307 136.838,197.307 136.5,213.5C 136.5,197.167 136.5,180.833 136.5,164.5C 137.791,164.263 138.791,164.596 139.5,165.5 Z"/></g>
</svg>
